<svg xmlns="http://www.w3.org/2000/svg" viewBox="0 0 800 400" width="800" height="400">
<rect width="800" height="400" fill="white"/>
<defs><linearGradient id="areaGrad" x1="0" y1="0" x2="0" y2="1"><stop offset="0%" stop-color="#4A90D9" stop-opacity="0.3"/><stop offset="100%" stop-color="#4A90D9" stop-opacity="0.05"/></linearGradient></defs>
<line x1="80" y1="315.9" x2="760" y2="315.9" stroke="#E5E5E5" stroke-width="1"/>
<text x="72" y="319.9" text-anchor="end" font-family="system-ui, sans-serif" font-size="12" fill="#666">335k</text>
<line x1="80" y1="271.5" x2="760" y2="271.5" stroke="#E5E5E5" stroke-width="1"/>
<text x="72" y="275.5" text-anchor="end" font-family="system-ui, sans-serif" font-size="12" fill="#666">336k</text>
<line x1="80" y1="227.1" x2="760" y2="227.1" stroke="#E5E5E5" stroke-width="1"/>
<text x="72" y="231.1" text-anchor="end" font-family="system-ui, sans-serif" font-size="12" fill="#666">337k</text>
<line x1="80" y1="182.7" x2="760" y2="182.7" stroke="#E5E5E5" stroke-width="1"/>
<text x="72" y="186.7" text-anchor="end" font-family="system-ui, sans-serif" font-size="12" fill="#666">338k</text>
<line x1="80" y1="138.3" x2="760" y2="138.3" stroke="#E5E5E5" stroke-width="1"/>
<text x="72" y="142.3" text-anchor="end" font-family="system-ui, sans-serif" font-size="12" fill="#666">339k</text>
<line x1="80" y1="93.9" x2="760" y2="93.9" stroke="#E5E5E5" stroke-width="1"/>
<text x="72" y="97.9" text-anchor="end" font-family="system-ui, sans-serif" font-size="12" fill="#666">340k</text>
<line x1="80" y1="49.5" x2="760" y2="49.5" stroke="#E5E5E5" stroke-width="1"/>
<text x="72" y="53.5" text-anchor="end" font-family="system-ui, sans-serif" font-size="12" fill="#666">341k</text>
<text x="80.0" y="360" text-anchor="middle" font-family="system-ui, sans-serif" font-size="12" fill="#666">Aug 2026</text>
<path d="M80.0,190.0" fill="none" stroke="#4A90D9" stroke-width="2.5" stroke-linejoin="round" stroke-linecap="round"/>
<circle cx="80.0" cy="190.0" r="3.5" fill="white" stroke="#4A90D9" stroke-width="2"/>
<text x="80" y="24" font-family="system-ui, sans-serif" font-size="16" font-weight="600" fill="#333">Lines of Code</text>
<line x1="80" y1="40" x2="80" y2="340" stroke="#CCC" stroke-width="1"/><line x1="80" y1="340" x2="760" y2="340" stroke="#CCC" stroke-width="1"/>
</svg>